<?xml version="1.0" encoding="UTF-8"?>
<svg xmlns="http://www.w3.org/2000/svg" xmlns:xlink="http://www.w3.org/1999/xlink" width="70pt" height="70pt" viewBox="0 0 70 70" version="1.1">
<defs>
<linearGradient id="linear0" gradientUnits="userSpaceOnUse" x1="12.11" y1="14.5" x2="12.3" y2="3.41" gradientTransform="matrix(3.888889,0,0,3.888889,0,0)">
<stop offset="0" style="stop-color:rgb(0,124,216);stop-opacity:1;"/>
<stop offset="0" style="stop-color:rgb(0,124,216);stop-opacity:1;"/>
<stop offset="0.11" style="stop-color:rgb(3,148,255);stop-opacity:1;"/>
<stop offset="0.23" style="stop-color:rgb(37,162,255);stop-opacity:1;"/>
<stop offset="0.37" style="stop-color:rgb(61,172,255);stop-opacity:1;"/>
<stop offset="0.53" style="stop-color:rgb(73,177,255);stop-opacity:1;"/>
<stop offset="0.78" style="stop-color:rgb(79,180,255);stop-opacity:1;"/>
</linearGradient>
<filter id="alpha" filterUnits="objectBoundingBox" x="0%" y="0%" width="100%" height="100%">
  <feColorMatrix type="matrix" in="SourceGraphic" values="0 0 0 0 1 0 0 0 0 1 0 0 0 0 1 0 0 0 1 0"/>
</filter>
<mask id="mask0">
  <g filter="url(#alpha)">
<rect x="0" y="0" width="70" height="70" style="fill:rgb(0,0,0);fill-opacity:0.501961;stroke:none;"/>
  </g>
</mask>
<clipPath id="clip1">
  <rect x="0" y="0" width="70" height="70"/>
</clipPath>
<g id="surface5" clip-path="url(#clip1)">
<path style=" stroke:none;fill-rule:nonzero;fill:rgb(51,168,255);fill-opacity:1;" d="M 4.160156 5.5625 L 9.179688 5.5625 L 9.179688 19.445313 C 9.179688 20.066406 8.671875 20.570313 8.050781 20.570313 L 3.070313 20.570313 C 2.449219 20.570313 1.945313 20.066406 1.945313 19.445313 L 1.945313 7.777344 C 1.945313 6.554688 2.9375 5.5625 4.160156 5.5625 Z M 4.160156 5.5625 "/>
</g>
<mask id="mask1">
  <g filter="url(#alpha)">
<rect x="0" y="0" width="70" height="70" style="fill:rgb(0,0,0);fill-opacity:0.501961;stroke:none;"/>
  </g>
</mask>
<clipPath id="clip2">
  <rect x="0" y="0" width="70" height="70"/>
</clipPath>
<g id="surface8" clip-path="url(#clip2)">
<path style=" stroke:none;fill-rule:nonzero;fill:rgb(51,168,255);fill-opacity:1;" d="M 60.820313 5.5625 L 65.839844 5.5625 C 67.0625 5.5625 68.054688 6.554688 68.054688 7.777344 L 68.054688 19.445313 C 68.054688 20.066406 67.550781 20.570313 66.929688 20.570313 L 61.910156 20.570313 C 61.304688 20.550781 60.820313 20.050781 60.820313 19.445313 Z M 60.820313 5.5625 "/>
</g>
<mask id="mask2">
  <g filter="url(#alpha)">
<rect x="0" y="0" width="70" height="70" style="fill:rgb(0,0,0);fill-opacity:0.501961;stroke:none;"/>
  </g>
</mask>
<clipPath id="clip3">
  <rect x="0" y="0" width="70" height="70"/>
</clipPath>
<g id="surface11" clip-path="url(#clip3)">
<path style=" stroke:none;fill-rule:nonzero;fill:rgb(51,168,255);fill-opacity:1;" d="M 3.070313 49.3125 L 8.089844 49.3125 C 8.710938 49.3125 9.214844 49.816406 9.214844 50.4375 L 9.214844 64.4375 L 4.160156 64.4375 C 2.9375 64.4375 1.945313 63.445313 1.945313 62.222656 L 1.945313 50.554688 C 1.910156 50.238281 2.015625 49.917969 2.230469 49.679688 C 2.445313 49.445313 2.75 49.308594 3.070313 49.3125 Z M 3.070313 49.3125 "/>
</g>
<mask id="mask3">
  <g filter="url(#alpha)">
<rect x="0" y="0" width="70" height="70" style="fill:rgb(0,0,0);fill-opacity:0.501961;stroke:none;"/>
  </g>
</mask>
<clipPath id="clip4">
  <rect x="0" y="0" width="70" height="70"/>
</clipPath>
<g id="surface14" clip-path="url(#clip4)">
<path style=" stroke:none;fill-rule:nonzero;fill:rgb(51,168,255);fill-opacity:1;" d="M 61.910156 49.3125 L 66.929688 49.3125 C 67.550781 49.3125 68.054688 49.816406 68.054688 50.4375 L 68.054688 62.105469 C 68.054688 63.328125 67.0625 64.320313 65.839844 64.320313 L 60.820313 64.320313 L 60.820313 50.554688 C 60.789063 50.242188 60.886719 49.933594 61.09375 49.695313 C 61.300781 49.460938 61.597656 49.320313 61.910156 49.3125 Z M 61.910156 49.3125 "/>
</g>
</defs>
<g id="surface1">
<path style=" stroke:none;fill-rule:nonzero;fill:rgb(41,164,255);fill-opacity:1;" d="M 54.289063 32.121094 L 27.6875 32.121094 L 35.195313 24.578125 L 47.753906 24.578125 L 47.753906 21.660156 L 33.988281 21.660156 L 23.566406 32.121094 L 12.289063 32.121094 L 12.289063 35.039063 L 14.3125 35.039063 L 24.773438 45.578125 L 40.367188 45.578125 L 40.367188 42.660156 L 25.976563 42.660156 L 18.394531 35.039063 L 54.289063 35.039063 Z M 54.289063 32.121094 "/>
<path style=" stroke:none;fill-rule:nonzero;fill:url(#linear0);" d="M 43.128906 18.121094 C 45.160156 18.121094 46.992188 19.347656 47.765625 21.226563 C 48.539063 23.109375 48.105469 25.269531 46.660156 26.699219 C 45.21875 28.132813 43.054688 28.550781 41.179688 27.761719 C 39.308594 26.972656 38.09375 25.132813 38.109375 23.101563 C 38.109375 21.773438 38.640625 20.5 39.582031 19.566406 C 40.523438 18.632813 41.800781 18.113281 43.128906 18.121094 Z M 47.679688 33.679688 C 47.660156 35.710938 48.875 37.550781 50.746094 38.339844 C 52.621094 39.128906 54.785156 38.710938 56.226563 37.277344 C 57.671875 35.847656 58.105469 33.683594 57.332031 31.804688 C 56.558594 29.925781 54.726563 28.699219 52.695313 28.699219 C 49.96875 28.699219 47.742188 30.875 47.679688 33.601563 Z M 37.101563 44.0625 C 37.085938 46.09375 38.296875 47.933594 40.167969 48.722656 C 42.042969 49.511719 44.207031 49.09375 45.648438 47.660156 C 47.09375 46.230469 47.527344 44.070313 46.753906 42.1875 C 45.980469 40.308594 44.148438 39.082031 42.117188 39.082031 C 40.789063 39.074219 39.511719 39.59375 38.570313 40.527344 C 37.628906 41.460938 37.101563 42.734375 37.101563 44.0625 Z M 37.101563 44.0625 "/>
<path style=" stroke:none;fill-rule:nonzero;fill:rgb(51,168,255);fill-opacity:1;" d="M 4.160156 5.5625 L 9.179688 5.5625 L 9.179688 19.445313 C 9.179688 20.066406 8.671875 20.570313 8.050781 20.570313 L 3.070313 20.570313 C 2.449219 20.570313 1.945313 20.066406 1.945313 19.445313 L 1.945313 7.777344 C 1.945313 6.554688 2.9375 5.5625 4.160156 5.5625 Z M 4.160156 5.5625 "/>
<use xlink:href="#surface5" mask="url(#mask0)"/>
<path style=" stroke:none;fill-rule:nonzero;fill:rgb(51,168,255);fill-opacity:1;" d="M 60.820313 5.5625 L 65.839844 5.5625 C 67.0625 5.5625 68.054688 6.554688 68.054688 7.777344 L 68.054688 19.445313 C 68.054688 20.066406 67.550781 20.570313 66.929688 20.570313 L 61.910156 20.570313 C 61.304688 20.550781 60.820313 20.050781 60.820313 19.445313 Z M 60.820313 5.5625 "/>
<use xlink:href="#surface8" mask="url(#mask1)"/>
<path style=" stroke:none;fill-rule:nonzero;fill:rgb(41,164,255);fill-opacity:1;" d="M 68.054688 7.777344 L 68.054688 12.640625 L 1.945313 12.640625 L 1.945313 7.777344 C 1.945313 6.554688 2.9375 5.5625 4.160156 5.5625 L 65.878906 5.5625 C 67.085938 5.582031 68.054688 6.570313 68.054688 7.777344 Z M 68.054688 7.777344 "/>
<path style=" stroke:none;fill-rule:nonzero;fill:rgb(51,168,255);fill-opacity:1;" d="M 3.070313 49.3125 L 8.089844 49.3125 C 8.710938 49.3125 9.214844 49.816406 9.214844 50.4375 L 9.214844 64.4375 L 4.160156 64.4375 C 2.9375 64.4375 1.945313 63.445313 1.945313 62.222656 L 1.945313 50.554688 C 1.910156 50.238281 2.015625 49.917969 2.230469 49.679688 C 2.445313 49.445313 2.75 49.308594 3.070313 49.3125 Z M 3.070313 49.3125 "/>
<use xlink:href="#surface11" mask="url(#mask2)"/>
<path style=" stroke:none;fill-rule:nonzero;fill:rgb(51,168,255);fill-opacity:1;" d="M 61.910156 49.3125 L 66.929688 49.3125 C 67.550781 49.3125 68.054688 49.816406 68.054688 50.4375 L 68.054688 62.105469 C 68.054688 63.328125 67.0625 64.320313 65.839844 64.320313 L 60.820313 64.320313 L 60.820313 50.554688 C 60.789063 50.242188 60.886719 49.933594 61.09375 49.695313 C 61.300781 49.460938 61.597656 49.320313 61.910156 49.3125 Z M 61.910156 49.3125 "/>
<use xlink:href="#surface14" mask="url(#mask3)"/>
<path style=" stroke:none;fill-rule:nonzero;fill:rgb(41,164,255);fill-opacity:1;" d="M 1.945313 62.222656 L 1.945313 57.359375 L 68.054688 57.359375 L 68.054688 62.222656 C 68.054688 63.445313 67.0625 64.4375 65.839844 64.4375 L 4.160156 64.4375 C 2.9375 64.4375 1.945313 63.445313 1.945313 62.222656 Z M 1.945313 62.222656 "/>
</g>
</svg>
