<?xml version="1.0" encoding="UTF-8"?>
<svg xmlns="http://www.w3.org/2000/svg" xmlns:xlink="http://www.w3.org/1999/xlink" width="70pt" height="70pt" viewBox="0 0 70 70" version="1.1">
<g id="surface1">
<path style=" stroke:none;fill-rule:nonzero;fill:rgb(39,163,255);fill-opacity:1;" d="M 66.359375 38.640625 C 66.359375 28.421875 61.460938 19.460938 54.039063 13.71875 C 54.039063 14 54.039063 14.421875 54.039063 14.699219 C 54.039063 17.78125 53.199219 20.71875 51.941406 23.238281 C 55.578125 27.300781 57.820313 32.621094 57.820313 38.5 C 57.820313 51.101563 47.601563 61.320313 35 61.320313 C 22.398438 61.320313 12.179688 51.101563 12.179688 38.5 C 12.179688 32.199219 14.699219 26.601563 18.761719 22.398438 C 17.640625 20.019531 16.941406 17.359375 16.941406 14.558594 C 16.941406 14 16.941406 13.300781 17.078125 12.738281 C 8.960938 18.339844 3.640625 27.859375 3.640625 38.5 C 3.640625 56 17.640625 70 35 70 C 52.359375 70 66.359375 56 66.359375 38.640625 Z M 66.359375 38.640625 "/>
<path style=" stroke:none;fill-rule:nonzero;fill:rgb(147,209,255);fill-opacity:1;" d="M 35.421875 0 C 27.441406 0 21 6.441406 21 14.421875 C 21 21 25.339844 26.460938 31.359375 28.28125 L 31.359375 42.558594 L 24.640625 42.558594 L 24.640625 49.839844 L 31.359375 49.839844 L 31.359375 55.160156 L 39.339844 55.160156 L 39.339844 28.140625 C 45.359375 26.460938 49.699219 20.859375 49.699219 14.28125 C 49.839844 6.441406 43.398438 0 35.421875 0 Z M 35.421875 7.558594 C 39.199219 7.558594 42.28125 10.640625 42.28125 14.421875 C 42.28125 18.199219 39.199219 21.28125 35.421875 21.28125 C 31.640625 21.28125 28.558594 18.199219 28.558594 14.421875 C 28.558594 10.640625 31.640625 7.558594 35.421875 7.558594 Z M 35.421875 7.558594 "/>
</g>
</svg>
