<?xml version="1.0" encoding="UTF-8"?>
<svg xmlns="http://www.w3.org/2000/svg" xmlns:xlink="http://www.w3.org/1999/xlink" width="70pt" height="70pt" viewBox="0 0 70 70" version="1.1">
<defs>
<linearGradient id="linear0" gradientUnits="userSpaceOnUse" x1="9" y1="16.236" x2="9" y2="5.599" gradientTransform="matrix(3.888889,0,0,3.888889,0,0)">
<stop offset="0" style="stop-color:rgb(47,166,255);stop-opacity:1;"/>
<stop offset="0.775" style="stop-color:rgb(79,180,255);stop-opacity:1;"/>
</linearGradient>
<filter id="alpha" filterUnits="objectBoundingBox" x="0%" y="0%" width="100%" height="100%">
  <feColorMatrix type="matrix" in="SourceGraphic" values="0 0 0 0 1 0 0 0 0 1 0 0 0 0 1 0 0 0 1 0"/>
</filter>
<mask id="mask0">
  <g filter="url(#alpha)">
<rect x="0" y="0" width="70" height="70" style="fill:rgb(0,0,0);fill-opacity:0.8;stroke:none;"/>
  </g>
</mask>
<clipPath id="clip1">
  <rect x="0" y="0" width="70" height="70"/>
</clipPath>
<g id="surface5" clip-path="url(#clip1)">
<path style=" stroke:none;fill-rule:nonzero;fill:rgb(255,255,255);fill-opacity:1;" d="M 16.558594 41.980469 L 17.796875 40.75 L 27.632813 50.613281 C 27.855469 50.835938 27.855469 51.191406 27.632813 51.414063 L 26.398438 52.644531 C 26.175781 52.863281 25.820313 52.863281 25.597656 52.644531 L 16.558594 43.574219 C 16.117188 43.136719 16.117188 42.421875 16.558594 41.980469 Z M 16.558594 41.980469 "/>
</g>
<mask id="mask1">
  <g filter="url(#alpha)">
<rect x="0" y="0" width="70" height="70" style="fill:rgb(0,0,0);fill-opacity:0.8;stroke:none;"/>
  </g>
</mask>
<clipPath id="clip2">
  <rect x="0" y="0" width="70" height="70"/>
</clipPath>
<g id="surface8" clip-path="url(#clip2)">
<path style=" stroke:none;fill-rule:nonzero;fill:rgb(255,255,255);fill-opacity:1;" d="M 43.097656 52.644531 L 41.847656 51.398438 C 41.628906 51.179688 41.628906 50.824219 41.847656 50.601563 L 51.6875 40.734375 L 52.9375 41.980469 C 53.378906 42.421875 53.378906 43.136719 52.9375 43.578125 L 43.894531 52.644531 C 43.675781 52.867188 43.320313 52.867188 43.097656 52.644531 Z M 43.097656 52.644531 "/>
</g>
</defs>
<g id="surface1">
<path style=" stroke:none;fill-rule:nonzero;fill:url(#linear0);" d="M 0 21.777344 L 70 21.777344 L 70 60.804688 C 70 62.089844 68.957031 63.136719 67.667969 63.136719 L 2.332031 63.136719 C 1.042969 63.136719 0 62.089844 0 60.804688 Z M 0 21.777344 "/>
<path style=" stroke:none;fill-rule:nonzero;fill:rgb(171,219,255);fill-opacity:1;" d="M 7.425781 25.886719 L 63.140625 25.886719 C 64.429688 25.886719 65.472656 26.933594 65.472656 28.222656 L 65.472656 56.664063 C 65.472656 57.953125 64.429688 59 63.140625 59 L 7.425781 59 C 6.136719 59 5.089844 57.953125 5.089844 56.664063 L 5.089844 28.222656 C 5.089844 26.933594 6.136719 25.886719 7.425781 25.886719 Z M 7.425781 25.886719 "/>
<path style=" stroke:none;fill-rule:nonzero;fill:rgb(0,124,216);fill-opacity:1;" d="M 2.332031 6.859375 L 67.667969 6.859375 C 68.957031 6.859375 70 7.90625 70 9.191406 L 70 21.777344 L 0 21.777344 L 0 9.195313 C 0 8.578125 0.246094 7.984375 0.683594 7.542969 C 1.121094 7.105469 1.714844 6.859375 2.332031 6.859375 Z M 2.332031 6.859375 "/>
<use xlink:href="#surface5" mask="url(#mask0)"/>
<path style=" stroke:none;fill-rule:nonzero;fill:rgb(255,255,255);fill-opacity:1;" d="M 17.792969 44.828125 L 16.546875 43.578125 C 16.109375 43.136719 16.109375 42.421875 16.550781 41.984375 L 25.765625 32.796875 C 25.984375 32.574219 26.34375 32.574219 26.5625 32.796875 L 27.808594 34.046875 C 28.027344 34.265625 28.027344 34.625 27.808594 34.84375 Z M 17.792969 44.828125 "/>
<use xlink:href="#surface8" mask="url(#mask1)"/>
<path style=" stroke:none;fill-rule:nonzero;fill:rgb(255,255,255);fill-opacity:1;" d="M 41.679688 34.046875 L 42.925781 32.796875 C 43.144531 32.578125 43.503906 32.578125 43.722656 32.796875 L 52.9375 41.984375 C 53.378906 42.425781 53.378906 43.136719 52.941406 43.578125 L 51.695313 44.828125 L 41.679688 34.84375 C 41.460938 34.625 41.460938 34.269531 41.679688 34.046875 Z M 41.679688 34.046875 "/>
<path style=" stroke:none;fill-rule:nonzero;fill:rgb(255,255,255);fill-opacity:1;" d="M 38.105469 29.0625 L 40.097656 29.699219 C 40.308594 29.765625 40.425781 29.992188 40.359375 30.207031 L 32.230469 55.59375 C 32.164063 55.804688 31.933594 55.921875 31.722656 55.855469 L 29.734375 55.21875 C 29.519531 55.148438 29.402344 54.921875 29.472656 54.707031 L 37.597656 29.324219 C 37.667969 29.109375 37.894531 28.992188 38.105469 29.0625 Z M 38.105469 29.0625 "/>
<path style=" stroke:none;fill-rule:nonzero;fill:rgb(255,255,255);fill-opacity:1;" d="M 12.3125 14.960938 C 12.3125 16.59375 10.988281 17.917969 9.355469 17.917969 C 7.722656 17.917969 6.402344 16.59375 6.402344 14.960938 C 6.402344 13.328125 7.722656 12.003906 9.355469 12.003906 C 10.988281 12.003906 12.3125 13.328125 12.3125 14.960938 Z M 18.667969 12.003906 C 17.035156 12.003906 15.710938 13.328125 15.710938 14.960938 C 15.710938 16.59375 17.035156 17.917969 18.667969 17.917969 C 20.300781 17.917969 21.621094 16.59375 21.621094 14.960938 C 21.621094 13.328125 20.300781 12.003906 18.667969 12.003906 Z M 27.972656 12.003906 C 26.339844 12.003906 25.015625 13.328125 25.015625 14.960938 C 25.015625 16.59375 26.339844 17.917969 27.972656 17.917969 C 29.605469 17.917969 30.929688 16.59375 30.929688 14.960938 C 30.929688 14.175781 30.617188 13.421875 30.058594 12.867188 C 29.503906 12.3125 28.75 12.003906 27.964844 12.003906 Z M 27.972656 12.003906 "/>
</g>
</svg>
