<?xml version="1.0" encoding="UTF-8"?>
<svg xmlns="http://www.w3.org/2000/svg" xmlns:xlink="http://www.w3.org/1999/xlink" width="70pt" height="70pt" viewBox="0 0 70 70" version="1.1">
<defs>
<linearGradient id="linear0" gradientUnits="userSpaceOnUse" x1="21.523" y1="25" x2="21.523" y2="13" gradientTransform="matrix(1.4,0,0,-1.4,0,70)">
<stop offset="0.23" style="stop-color:rgb(41,164,255);stop-opacity:1;"/>
<stop offset="0.32" style="stop-color:rgb(39,163,255);stop-opacity:1;"/>
<stop offset="0.48" style="stop-color:rgb(25,157,255);stop-opacity:1;"/>
<stop offset="0.57" style="stop-color:rgb(5,148,255);stop-opacity:1;"/>
<stop offset="0.75" style="stop-color:rgb(0,133,232);stop-opacity:1;"/>
<stop offset="0.93" style="stop-color:rgb(0,119,208);stop-opacity:1;"/>
</linearGradient>
<linearGradient id="linear1" gradientUnits="userSpaceOnUse" x1="27.477" y1="20" x2="27.477" y2="8" gradientTransform="matrix(1.4,0,0,-1.4,0,70)">
<stop offset="0.02" style="stop-color:rgb(41,164,255);stop-opacity:1;"/>
<stop offset="0.14" style="stop-color:rgb(39,163,255);stop-opacity:1;"/>
<stop offset="0.23" style="stop-color:rgb(39,163,255);stop-opacity:1;"/>
<stop offset="0.34" style="stop-color:rgb(25,157,255);stop-opacity:1;"/>
<stop offset="0.44" style="stop-color:rgb(5,148,255);stop-opacity:1;"/>
<stop offset="0.63" style="stop-color:rgb(0,133,232);stop-opacity:1;"/>
<stop offset="0.93" style="stop-color:rgb(0,119,208);stop-opacity:1;"/>
</linearGradient>
</defs>
<g id="surface1">
<path style=" stroke:none;fill-rule:nonzero;fill:rgb(0,140,244);fill-opacity:1;" d="M 32.199219 9.941406 L 36.398438 9.941406 L 36.398438 36.398438 L 32.199219 36.398438 Z M 32.199219 9.941406 "/>
<path style=" stroke:none;fill-rule:nonzero;fill:rgb(0,132,230);fill-opacity:1;" d="M 40.460938 9.101563 C 40.460938 12.503906 37.703125 15.261719 34.300781 15.261719 C 30.898438 15.261719 28.140625 12.503906 28.140625 9.101563 C 28.140625 5.699219 30.898438 2.941406 34.300781 2.941406 C 37.703125 2.941406 40.460938 5.699219 40.460938 9.101563 Z M 40.460938 9.101563 "/>
<path style=" stroke:none;fill-rule:nonzero;fill:url(#linear0);" d="M 33.460938 35 L 26.738281 35 C 22.378906 35.03125 18.769531 38.398438 18.429688 42.746094 C 18.089844 47.09375 21.132813 50.980469 25.4375 51.6875 C 25.285156 50.652344 25.3125 49.59375 25.523438 48.566406 C 22.867188 47.976563 21.085938 45.476563 21.398438 42.773438 C 21.710938 40.070313 24.019531 38.042969 26.738281 38.078125 L 33.460938 38.078125 C 36.398438 38.078125 38.78125 40.460938 38.78125 43.398438 C 38.78125 46.339844 36.398438 48.71875 33.460938 48.71875 L 31.613281 48.71875 C 31.359375 49.246094 31.226563 49.816406 31.21875 50.398438 C 31.222656 50.878906 31.3125 51.355469 31.484375 51.800781 L 33.460938 51.800781 C 38.097656 51.800781 41.859375 48.039063 41.859375 43.398438 C 41.859375 38.761719 38.097656 35 33.460938 35 Z M 33.460938 35 "/>
<path style=" stroke:none;fill-rule:nonzero;fill:url(#linear1);" d="M 43.160156 42.113281 C 43.222656 42.539063 43.257813 42.96875 43.261719 43.398438 C 43.265625 44.015625 43.203125 44.628906 43.078125 45.234375 C 45.734375 45.824219 47.515625 48.324219 47.203125 51.027344 C 46.886719 53.730469 44.582031 55.757813 41.859375 55.71875 L 35.140625 55.71875 C 32.203125 55.71875 29.820313 53.339844 29.820313 50.398438 C 29.820313 47.460938 32.203125 45.078125 35.140625 45.078125 L 36.988281 45.078125 C 37.242188 44.554688 37.375 43.980469 37.378906 43.398438 C 37.378906 42.921875 37.289063 42.445313 37.113281 42 L 35.140625 42 C 30.5 42 26.738281 45.761719 26.738281 50.398438 C 26.738281 55.039063 30.5 58.800781 35.140625 58.800781 L 41.859375 58.800781 C 46.222656 58.765625 49.832031 55.402344 50.171875 51.054688 C 50.511719 46.707031 47.464844 42.820313 43.160156 42.113281 Z M 43.160156 42.113281 "/>
<path style=" stroke:none;fill-rule:nonzero;fill:rgb(119,197,255);fill-opacity:1;" d="M 22.203125 62.328125 L 20.664063 63.882813 C 20.253906 64.289063 19.589844 64.289063 19.179688 63.882813 L 1.945313 46.691406 C 1.125 45.867188 1.125 44.53125 1.945313 43.707031 L 3.5 42.167969 L 22.203125 60.84375 C 22.402344 61.035156 22.515625 61.296875 22.515625 61.570313 C 22.519531 61.847656 22.414063 62.113281 22.222656 62.308594 Z M 22.203125 62.328125 "/>
<path style=" stroke:none;fill-rule:nonzero;fill:rgb(0,132,230);fill-opacity:1;" d="M 20.34375 26.769531 L 22.0625 28.488281 C 22.472656 28.898438 22.472656 29.5625 22.0625 29.972656 L 3.667969 48.425781 L 1.945313 46.71875 C 1.125 45.894531 1.125 44.5625 1.945313 43.734375 L 18.859375 26.769531 C 19.269531 26.359375 19.933594 26.359375 20.34375 26.769531 Z M 20.34375 26.769531 "/>
<path style=" stroke:none;fill-rule:nonzero;fill:rgb(119,197,255);fill-opacity:1;" d="M 47.78125 63.546875 C 47.585938 63.355469 47.472656 63.09375 47.46875 62.816406 C 47.464844 62.542969 47.570313 62.277344 47.761719 62.082031 L 47.78125 62.0625 L 66.5 43.398438 L 68.054688 44.953125 C 68.875 45.777344 68.875 47.109375 68.054688 47.9375 L 50.804688 65.101563 C 50.613281 65.296875 50.351563 65.410156 50.078125 65.414063 C 49.804688 65.417969 49.539063 65.3125 49.339844 65.121094 L 49.320313 65.101563 Z M 47.78125 63.546875 "/>
<path style=" stroke:none;fill-rule:nonzero;fill:rgb(0,132,230);fill-opacity:1;" d="M 51.128906 28 L 68.054688 44.96875 C 68.871094 45.789063 68.871094 47.117188 68.054688 47.9375 L 66.332031 49.65625 L 47.921875 31.207031 C 47.519531 30.789063 47.519531 30.125 47.921875 29.707031 L 49.644531 28 C 50.054688 27.589844 50.71875 27.589844 51.128906 28 Z M 51.128906 28 "/>
</g>
</svg>
