<?xml version="1.0" encoding="UTF-8"?>
<svg xmlns="http://www.w3.org/2000/svg" xmlns:xlink="http://www.w3.org/1999/xlink" width="70pt" height="70pt" viewBox="0 0 70 70" version="1.1">
<defs>
<linearGradient id="linear0" gradientUnits="userSpaceOnUse" x1="8.51" y1="0.58" x2="8.51" y2="17.27" gradientTransform="matrix(3.888889,0,0,3.888889,0,0)">
<stop offset="0.09" style="stop-color:rgb(83,182,255);stop-opacity:1;"/>
<stop offset="0.46" style="stop-color:rgb(79,180,255);stop-opacity:1;"/>
<stop offset="0.64" style="stop-color:rgb(65,174,255);stop-opacity:1;"/>
<stop offset="0.77" style="stop-color:rgb(41,164,255);stop-opacity:1;"/>
<stop offset="0.88" style="stop-color:rgb(5,148,255);stop-opacity:1;"/>
<stop offset="0.98" style="stop-color:rgb(0,123,214);stop-opacity:1;"/>
<stop offset="1" style="stop-color:rgb(0,115,200);stop-opacity:1;"/>
</linearGradient>
</defs>
<g id="surface1">
<path style=" stroke:none;fill-rule:nonzero;fill:url(#linear0);" d="M 0.234375 9.683594 L 66.109375 9.683594 C 67.214844 9.640625 68.148438 10.488281 68.210938 11.589844 L 68.210938 57.359375 C 68.148438 58.464844 67.214844 59.3125 66.109375 59.265625 L 0.234375 59.265625 C -0.875 59.3125 -1.824219 58.46875 -1.90625 57.359375 L -1.90625 11.667969 C -1.886719 11.121094 -1.648438 10.605469 -1.246094 10.230469 C -0.847656 9.859375 -0.3125 9.664063 0.234375 9.683594 Z M 0.234375 9.683594 "/>
<path style=" stroke:none;fill-rule:nonzero;fill:rgb(255,255,255);fill-opacity:1;" d="M 27.222656 15.554688 L 58.683594 15.554688 C 59.011719 15.554688 59.285156 15.808594 59.304688 16.140625 L 59.304688 33.523438 C 59.285156 33.851563 59.011719 34.105469 58.683594 34.105469 L 27.222656 34.105469 C 26.894531 34.105469 26.621094 33.851563 26.601563 33.523438 L 26.601563 16.101563 C 26.640625 15.785156 26.90625 15.554688 27.222656 15.554688 Z M 27.222656 15.554688 "/>
<path style=" stroke:none;fill-rule:nonzero;fill:rgb(255,255,255);fill-opacity:1;" d="M 7.390625 15.515625 L 19.484375 15.515625 C 19.804688 15.515625 20.066406 15.777344 20.066406 16.101563 L 20.066406 52.304688 C 20.066406 52.628906 19.804688 52.890625 19.484375 52.890625 L 7.390625 52.890625 C 7.066406 52.890625 6.804688 52.628906 6.804688 52.304688 L 6.804688 16.101563 C 6.804688 15.777344 7.066406 15.515625 7.390625 15.515625 Z M 7.390625 15.515625 "/>
<path style=" stroke:none;fill-rule:nonzero;fill:rgb(255,255,255);fill-opacity:1;" d="M 46.355469 39.355469 L 58.566406 39.355469 C 58.890625 39.355469 59.148438 39.617188 59.148438 39.9375 L 59.148438 52.34375 C 59.128906 52.652344 58.875 52.890625 58.566406 52.890625 L 46.355469 52.890625 C 46.046875 52.890625 45.792969 52.652344 45.773438 52.34375 L 45.773438 39.9375 C 45.773438 39.617188 46.035156 39.355469 46.355469 39.355469 Z M 46.355469 39.355469 "/>
<path style=" stroke:none;fill-rule:nonzero;fill:rgb(255,255,255);fill-opacity:1;" d="M 27.027344 39.355469 L 38.890625 39.355469 C 39.210938 39.355469 39.472656 39.617188 39.472656 39.9375 L 39.472656 52.34375 C 39.472656 52.644531 39.226563 52.890625 38.929688 52.890625 L 27.222656 52.890625 C 26.898438 52.890625 26.640625 52.628906 26.640625 52.304688 L 26.640625 39.9375 C 26.609375 39.675781 26.773438 39.429688 27.027344 39.355469 Z M 27.027344 39.355469 "/>
</g>
</svg>
