<?xml version="1.0" encoding="UTF-8"?>
<svg xmlns="http://www.w3.org/2000/svg" xmlns:xlink="http://www.w3.org/1999/xlink" width="70pt" height="70pt" viewBox="0 0 70 70" version="1.1">
<defs>
<linearGradient id="linear0" gradientUnits="userSpaceOnUse" x1="9" y1="10.3" x2="9" y2="13.2" gradientTransform="matrix(3.888889,0,0,3.888889,0,0)">
<stop offset="0" style="stop-color:rgb(0,81,142);stop-opacity:1;"/>
<stop offset="0.26" style="stop-color:rgb(0,79,138);stop-opacity:1;"/>
<stop offset="0.53" style="stop-color:rgb(0,71,124);stop-opacity:1;"/>
<stop offset="0.8" style="stop-color:rgb(0,57,100);stop-opacity:1;"/>
<stop offset="1" style="stop-color:rgb(0,44,78);stop-opacity:1;"/>
</linearGradient>
<filter id="alpha" filterUnits="objectBoundingBox" x="0%" y="0%" width="100%" height="100%">
  <feColorMatrix type="matrix" in="SourceGraphic" values="0 0 0 0 1 0 0 0 0 1 0 0 0 0 1 0 0 0 1 0"/>
</filter>
<mask id="mask0">
  <g filter="url(#alpha)">
<rect x="0" y="0" width="70" height="70" style="fill:rgb(0,0,0);fill-opacity:0.501961;stroke:none;"/>
  </g>
</mask>
<clipPath id="clip1">
  <rect x="0" y="0" width="70" height="70"/>
</clipPath>
<g id="surface5" clip-path="url(#clip1)">
<path style=" stroke:none;fill-rule:nonzero;fill:rgb(51,168,255);fill-opacity:1;" d="M 4.160156 5.5625 L 9.179688 5.5625 L 9.179688 19.445313 C 9.179688 20.066406 8.671875 20.570313 8.050781 20.570313 L 3.070313 20.570313 C 2.449219 20.570313 1.945313 20.066406 1.945313 19.445313 L 1.945313 7.777344 C 1.945313 6.554688 2.9375 5.5625 4.160156 5.5625 Z M 4.160156 5.5625 "/>
</g>
<mask id="mask1">
  <g filter="url(#alpha)">
<rect x="0" y="0" width="70" height="70" style="fill:rgb(0,0,0);fill-opacity:0.501961;stroke:none;"/>
  </g>
</mask>
<clipPath id="clip2">
  <rect x="0" y="0" width="70" height="70"/>
</clipPath>
<g id="surface8" clip-path="url(#clip2)">
<path style=" stroke:none;fill-rule:nonzero;fill:rgb(51,168,255);fill-opacity:1;" d="M 60.820313 5.5625 L 65.839844 5.5625 C 67.0625 5.5625 68.054688 6.554688 68.054688 7.777344 L 68.054688 19.445313 C 68.054688 20.066406 67.550781 20.570313 66.929688 20.570313 L 61.910156 20.570313 C 61.304688 20.550781 60.820313 20.050781 60.820313 19.445313 Z M 60.820313 5.5625 "/>
</g>
<mask id="mask2">
  <g filter="url(#alpha)">
<rect x="0" y="0" width="70" height="70" style="fill:rgb(0,0,0);fill-opacity:0.501961;stroke:none;"/>
  </g>
</mask>
<clipPath id="clip3">
  <rect x="0" y="0" width="70" height="70"/>
</clipPath>
<g id="surface11" clip-path="url(#clip3)">
<path style=" stroke:none;fill-rule:nonzero;fill:rgb(51,168,255);fill-opacity:1;" d="M 3.070313 49.3125 L 8.089844 49.3125 C 8.710938 49.3125 9.214844 49.816406 9.214844 50.4375 L 9.214844 64.4375 L 4.160156 64.4375 C 2.9375 64.4375 1.945313 63.445313 1.945313 62.222656 L 1.945313 50.554688 C 1.910156 50.238281 2.015625 49.917969 2.230469 49.679688 C 2.445313 49.445313 2.75 49.308594 3.070313 49.3125 Z M 3.070313 49.3125 "/>
</g>
<mask id="mask3">
  <g filter="url(#alpha)">
<rect x="0" y="0" width="70" height="70" style="fill:rgb(0,0,0);fill-opacity:0.501961;stroke:none;"/>
  </g>
</mask>
<clipPath id="clip4">
  <rect x="0" y="0" width="70" height="70"/>
</clipPath>
<g id="surface14" clip-path="url(#clip4)">
<path style=" stroke:none;fill-rule:nonzero;fill:rgb(51,168,255);fill-opacity:1;" d="M 61.910156 49.3125 L 66.929688 49.3125 C 67.550781 49.3125 68.054688 49.816406 68.054688 50.4375 L 68.054688 62.105469 C 68.054688 63.328125 67.0625 64.320313 65.839844 64.320313 L 60.820313 64.320313 L 60.820313 50.554688 C 60.789063 50.242188 60.886719 49.933594 61.09375 49.695313 C 61.300781 49.460938 61.597656 49.320313 61.910156 49.3125 Z M 61.910156 49.3125 "/>
</g>
</defs>
<g id="surface1">
<path style=" stroke:none;fill-rule:nonzero;fill:rgb(119,197,255);fill-opacity:1;" d="M 52.070313 28.777344 L 52.035156 28.777344 L 52.035156 28.699219 L 51.957031 28.699219 L 35 17.148438 L 18.003906 28.699219 L 17.929688 28.699219 L 17.929688 51.332031 L 52.035156 51.332031 L 52.035156 28.777344 Z M 52.070313 28.777344 "/>
<path style=" stroke:none;fill-rule:nonzero;fill:rgb(47,166,255);fill-opacity:1;" d="M 17.929688 28.777344 L 17.929688 51.332031 L 35 40.054688 Z M 17.929688 28.777344 "/>
<path style=" stroke:none;fill-rule:nonzero;fill:rgb(0,124,216);fill-opacity:1;" d="M 52.035156 28.777344 L 35 40.054688 L 52.035156 51.332031 Z M 52.035156 28.777344 "/>
<path style=" stroke:none;fill-rule:nonzero;fill:url(#linear0);" d="M 34.960938 40.054688 L 17.929688 51.292969 L 17.929688 51.332031 L 52.035156 51.332031 L 52.035156 51.292969 Z M 34.960938 40.054688 "/>
<path style=" stroke:none;fill-rule:nonzero;fill:rgb(51,168,255);fill-opacity:1;" d="M 4.160156 5.5625 L 9.179688 5.5625 L 9.179688 19.445313 C 9.179688 20.066406 8.671875 20.570313 8.050781 20.570313 L 3.070313 20.570313 C 2.449219 20.570313 1.945313 20.066406 1.945313 19.445313 L 1.945313 7.777344 C 1.945313 6.554688 2.9375 5.5625 4.160156 5.5625 Z M 4.160156 5.5625 "/>
<use xlink:href="#surface5" mask="url(#mask0)"/>
<path style=" stroke:none;fill-rule:nonzero;fill:rgb(51,168,255);fill-opacity:1;" d="M 60.820313 5.5625 L 65.839844 5.5625 C 67.0625 5.5625 68.054688 6.554688 68.054688 7.777344 L 68.054688 19.445313 C 68.054688 20.066406 67.550781 20.570313 66.929688 20.570313 L 61.910156 20.570313 C 61.304688 20.550781 60.820313 20.050781 60.820313 19.445313 Z M 60.820313 5.5625 "/>
<use xlink:href="#surface8" mask="url(#mask1)"/>
<path style=" stroke:none;fill-rule:nonzero;fill:rgb(41,164,255);fill-opacity:1;" d="M 68.054688 7.777344 L 68.054688 12.640625 L 1.945313 12.640625 L 1.945313 7.777344 C 1.945313 6.554688 2.9375 5.5625 4.160156 5.5625 L 65.878906 5.5625 C 67.085938 5.582031 68.054688 6.570313 68.054688 7.777344 Z M 68.054688 7.777344 "/>
<path style=" stroke:none;fill-rule:nonzero;fill:rgb(51,168,255);fill-opacity:1;" d="M 3.070313 49.3125 L 8.089844 49.3125 C 8.710938 49.3125 9.214844 49.816406 9.214844 50.4375 L 9.214844 64.4375 L 4.160156 64.4375 C 2.9375 64.4375 1.945313 63.445313 1.945313 62.222656 L 1.945313 50.554688 C 1.910156 50.238281 2.015625 49.917969 2.230469 49.679688 C 2.445313 49.445313 2.75 49.308594 3.070313 49.3125 Z M 3.070313 49.3125 "/>
<use xlink:href="#surface11" mask="url(#mask2)"/>
<path style=" stroke:none;fill-rule:nonzero;fill:rgb(51,168,255);fill-opacity:1;" d="M 61.910156 49.3125 L 66.929688 49.3125 C 67.550781 49.3125 68.054688 49.816406 68.054688 50.4375 L 68.054688 62.105469 C 68.054688 63.328125 67.0625 64.320313 65.839844 64.320313 L 60.820313 64.320313 L 60.820313 50.554688 C 60.789063 50.242188 60.886719 49.933594 61.09375 49.695313 C 61.300781 49.460938 61.597656 49.320313 61.910156 49.3125 Z M 61.910156 49.3125 "/>
<use xlink:href="#surface14" mask="url(#mask3)"/>
<path style=" stroke:none;fill-rule:nonzero;fill:rgb(41,164,255);fill-opacity:1;" d="M 1.945313 62.222656 L 1.945313 57.359375 L 68.054688 57.359375 L 68.054688 62.222656 C 68.054688 63.445313 67.0625 64.4375 65.839844 64.4375 L 4.160156 64.4375 C 2.9375 64.4375 1.945313 63.445313 1.945313 62.222656 Z M 1.945313 62.222656 "/>
</g>
</svg>
