<?xml version="1.0" encoding="UTF-8"?>
<svg xmlns="http://www.w3.org/2000/svg" xmlns:xlink="http://www.w3.org/1999/xlink" width="70pt" height="70pt" viewBox="0 0 70 70" version="1.1">
<defs>
<filter id="alpha" filterUnits="objectBoundingBox" x="0%" y="0%" width="100%" height="100%">
  <feColorMatrix type="matrix" in="SourceGraphic" values="0 0 0 0 1 0 0 0 0 1 0 0 0 0 1 0 0 0 1 0"/>
</filter>
<mask id="mask0">
  <g filter="url(#alpha)">
<rect x="0" y="0" width="70" height="70" style="fill:rgb(0,0,0);fill-opacity:0.8;stroke:none;"/>
  </g>
</mask>
<linearGradient id="linear0" gradientUnits="userSpaceOnUse" x1="160.90083" y1="177.92992" x2="150.35533" y2="187.43143" gradientTransform="matrix(3.598681,-1.474095,1.474095,3.598681,-797.531622,-382.937994)">
<stop offset="0" style="stop-color:rgb(255,255,255);stop-opacity:0.8;"/>
<stop offset="1" style="stop-color:rgb(255,255,255);stop-opacity:1;"/>
</linearGradient>
<clipPath id="clip1">
  <rect x="0" y="0" width="70" height="70"/>
</clipPath>
<g id="surface5" clip-path="url(#clip1)">
<path style=" stroke:none;fill-rule:nonzero;fill:url(#linear0);" d="M 53.585938 11.140625 C 53.070313 11.054688 52.476563 10.917969 51.820313 10.734375 C 51.722656 10.703125 51.589844 10.671875 51.492188 10.640625 C 50.816406 10.449219 49.855469 10.117188 49.835938 10.105469 C 49.636719 10.019531 49.363281 9.933594 49.164063 9.863281 C 48.960938 9.789063 48.691406 9.683594 48.492188 9.601563 C 47.152344 9.070313 45.84375 8.46875 44.566406 7.804688 C 43.003906 7.019531 41.535156 6.0625 40.1875 4.949219 C 38.242188 9.785156 35.410156 14.214844 31.839844 18.015625 C 23.734375 23.867188 14.390625 26.40625 11.484375 30.824219 C 5.503906 39.273438 5.390625 50.546875 11.199219 59.117188 C 17.011719 67.683594 27.527344 71.75 37.59375 69.320313 C 47.65625 66.886719 55.15625 58.46875 56.414063 48.191406 L 56.429688 48.199219 C 56.605469 46.75 56.617188 45.285156 56.46875 43.832031 C 55.476563 37.234375 51.332031 31.675781 50.9375 22.234375 C 51.347656 18.40625 52.425781 14.679688 54.125 11.222656 C 53.960938 11.199219 53.78125 11.175781 53.585938 11.140625 Z M 53.585938 11.140625 "/>
</g>
<mask id="mask1">
  <g filter="url(#alpha)">
<rect x="0" y="0" width="70" height="70" style="fill:rgb(0,0,0);fill-opacity:0.6;stroke:none;"/>
  </g>
</mask>
<clipPath id="clip2">
  <rect x="0" y="0" width="70" height="70"/>
</clipPath>
<g id="surface8" clip-path="url(#clip2)">
<path style=" stroke:none;fill-rule:nonzero;fill:rgb(255,255,255);fill-opacity:1;" d="M 54.847656 7.214844 C 56.390625 8.933594 54.738281 9.511719 51.164063 8.503906 C 47.734375 7.589844 44.5625 5.898438 41.886719 3.570313 C 40.34375 1.847656 41.996094 1.273438 45.574219 2.28125 C 49 3.195313 52.171875 4.882813 54.847656 7.214844 Z M 54.847656 7.214844 "/>
</g>
<mask id="mask2">
  <g filter="url(#alpha)">
<rect x="0" y="0" width="70" height="70" style="fill:rgb(0,0,0);fill-opacity:0.8;stroke:none;"/>
  </g>
</mask>
<clipPath id="clip3">
  <rect x="0" y="0" width="70" height="70"/>
</clipPath>
<g id="surface11" clip-path="url(#clip3)">
<path style=" stroke:none;fill-rule:nonzero;fill:rgb(255,255,255);fill-opacity:1;" d="M 57.339844 7.726563 C 57.03125 7.085938 55.894531 5.683594 51.796875 3.503906 C 50.097656 2.613281 48.335938 1.839844 46.527344 1.199219 C 46.128906 1.058594 45.597656 0.886719 45.199219 0.761719 C 44.980469 0.691406 44.757813 0.636719 44.539063 0.566406 C 44.332031 0.503906 44.121094 0.464844 43.914063 0.40625 C 43.738281 0.355469 43.503906 0.308594 43.324219 0.269531 C 42.347656 0.0234375 41.332031 -0.0234375 40.335938 0.136719 C 39.675781 0.351563 39.167969 0.882813 38.988281 1.554688 L 38.902344 1.824219 C 38.878906 1.894531 38.867188 1.964844 38.859375 2.039063 C 38.867188 1.964844 38.878906 1.894531 38.902344 1.824219 C 38.605469 2.988281 39.082031 4.207031 40.089844 4.859375 C 41.457031 6.015625 42.960938 7.003906 44.566406 7.804688 C 45.84375 8.46875 47.152344 9.070313 48.492188 9.601563 C 48.691406 9.683594 48.960938 9.789063 49.164063 9.863281 C 49.363281 9.9375 49.636719 10.019531 49.835938 10.105469 C 49.855469 10.117188 50.816406 10.449219 51.492188 10.640625 C 51.589844 10.671875 51.722656 10.703125 51.820313 10.734375 C 52.476563 10.917969 53.070313 11.054688 53.585938 11.140625 C 54.386719 11.34375 55.226563 11.351563 56.03125 11.167969 C 56.695313 10.960938 57.203125 10.425781 57.378906 9.753906 L 57.464844 9.480469 C 57.660156 8.902344 57.613281 8.273438 57.339844 7.726563 Z M 51.164063 8.503906 C 47.734375 7.589844 44.5625 5.898438 41.886719 3.570313 C 40.34375 1.847656 41.996094 1.273438 45.574219 2.28125 C 49 3.195313 52.171875 4.882813 54.847656 7.214844 C 56.390625 8.933594 54.738281 9.511719 51.164063 8.503906 Z M 51.164063 8.503906 "/>
</g>
<mask id="mask3">
  <g filter="url(#alpha)">
<rect x="0" y="0" width="70" height="70" style="fill:rgb(0,0,0);fill-opacity:0.6;stroke:none;"/>
  </g>
</mask>
<linearGradient id="linear1" gradientUnits="userSpaceOnUse" x1="1.77747" y1="12.69972" x2="14.54962" y2="12.69972" gradientTransform="matrix(3.888889,0,0,3.888889,0,0)">
<stop offset="0" style="stop-color:rgb(255,255,255);stop-opacity:1;"/>
<stop offset="1" style="stop-color:rgb(255,255,255);stop-opacity:0.6;"/>
</linearGradient>
<clipPath id="clip4">
  <rect x="0" y="0" width="70" height="70"/>
</clipPath>
<g id="surface14" clip-path="url(#clip4)">
<path style=" stroke:none;fill-rule:nonzero;fill:url(#linear1);" d="M 47.890625 37.894531 C 42.042969 36.652344 37.207031 32.496094 31.488281 30.746094 C 26.207031 28.890625 20.546875 28.394531 15.023438 29.300781 C 13.957031 29.59375 12.910156 29.941406 11.871094 30.320313 C 11.738281 30.484375 11.597656 30.652344 11.484375 30.824219 C 5.503906 39.273438 5.390625 50.546875 11.199219 59.117188 C 17.011719 67.683594 27.527344 71.75 37.59375 69.320313 C 47.65625 66.886719 55.15625 58.46875 56.414063 48.191406 L 56.429688 48.199219 C 56.605469 46.75 56.617188 45.285156 56.46875 43.832031 C 56.125 41.816406 55.589844 39.835938 54.867188 37.917969 C 52.5625 38.378906 50.191406 38.371094 47.890625 37.894531 Z M 47.890625 37.894531 "/>
</g>
<mask id="mask4">
  <g filter="url(#alpha)">
<rect x="0" y="0" width="70" height="70" style="fill:rgb(0,0,0);fill-opacity:0.8;stroke:none;"/>
  </g>
</mask>
<linearGradient id="linear2" gradientUnits="userSpaceOnUse" x1="8.16118" y1="11.13371" x2="8.16118" y2="18.00515" gradientTransform="matrix(3.888889,0,0,3.888889,0,0)">
<stop offset="0" style="stop-color:rgb(255,255,255);stop-opacity:0.8;"/>
<stop offset="1" style="stop-color:rgb(255,255,255);stop-opacity:0.6;"/>
</linearGradient>
<clipPath id="clip5">
  <rect x="0" y="0" width="70" height="70"/>
</clipPath>
<g id="surface17" clip-path="url(#clip5)">
<path style=" stroke:none;fill-rule:nonzero;fill:url(#linear2);" d="M 41.171875 68.160156 C 49.492188 64.753906 55.324219 57.117188 56.414063 48.191406 L 56.429688 48.199219 C 56.433594 48.132813 56.511719 47.488281 56.554688 46.632813 L 56.523438 46.664063 C 49.179688 52.371094 39.855469 54.902344 30.632813 53.691406 C 21.667969 53.675781 13.121094 49.925781 7.035156 43.347656 L 6.996094 43.296875 C 6.339844 51.886719 10.179688 60.199219 17.144531 65.265625 C 24.109375 70.332031 33.203125 71.429688 41.171875 68.160156 Z M 41.171875 68.160156 "/>
</g>
<mask id="mask5">
  <g filter="url(#alpha)">
<rect x="0" y="0" width="70" height="70" style="fill:rgb(0,0,0);fill-opacity:0.8;stroke:none;"/>
  </g>
</mask>
<linearGradient id="linear3" gradientUnits="userSpaceOnUse" x1="2.71814" y1="12.45104" x2="14.54962" y2="12.45104" gradientTransform="matrix(3.888889,0,0,3.888889,0,0)">
<stop offset="0" style="stop-color:rgb(255,255,255);stop-opacity:1;"/>
<stop offset="1" style="stop-color:rgb(255,255,255);stop-opacity:0.6;"/>
</linearGradient>
<clipPath id="clip6">
  <rect x="0" y="0" width="70" height="70"/>
</clipPath>
<g id="surface20" clip-path="url(#clip6)">
<path style=" stroke:none;fill-rule:nonzero;fill:url(#linear3);" d="M 56.414063 48.191406 L 56.429688 48.199219 C 56.605469 46.75 56.617188 45.285156 56.46875 43.832031 C 55.652344 38.382813 52.683594 33.632813 51.449219 26.824219 C 49 27.332031 46.753906 28.554688 44.996094 30.332031 C 42.640625 32.925781 40.59375 35.785156 38.902344 38.851563 C 35.453125 44.800781 30.597656 49.8125 24.765625 53.453125 C 20.320313 55.769531 15.523438 57.335938 10.570313 58.089844 C 16.066406 67.121094 26.679688 71.679688 37.011719 69.449219 C 47.347656 67.21875 55.132813 58.6875 56.414063 48.191406 Z M 56.414063 48.191406 "/>
</g>
<mask id="mask6">
  <g filter="url(#alpha)">
<rect x="0" y="0" width="70" height="70" style="fill:rgb(0,0,0);fill-opacity:0.2;stroke:none;"/>
  </g>
</mask>
<clipPath id="clip7">
  <rect x="0" y="0" width="70" height="70"/>
</clipPath>
<g id="surface23" clip-path="url(#clip7)">
<path style=" stroke:none;fill-rule:nonzero;fill:rgb(0,95,166);fill-opacity:1;" d="M 43.890625 60.433594 C 43.890625 61.75 42.824219 62.816406 41.507813 62.816406 C 40.191406 62.816406 39.125 61.75 39.125 60.433594 C 39.125 59.117188 40.191406 58.050781 41.507813 58.050781 C 42.824219 58.050781 43.890625 59.117188 43.890625 60.433594 Z M 43.890625 60.433594 "/>
</g>
</defs>
<g id="surface1">
<use xlink:href="#surface5" mask="url(#mask0)"/>
<use xlink:href="#surface8" mask="url(#mask1)"/>
<use xlink:href="#surface11" mask="url(#mask2)"/>
<path style=" stroke:none;fill-rule:nonzero;fill:rgb(255,255,255);fill-opacity:1;" d="M 12 30.152344 C 13.203125 33.089844 14.882813 35.808594 16.96875 38.203125 C 17.433594 38.71875 18.230469 38.765625 18.753906 38.304688 C 19.277344 37.847656 19.332031 37.054688 18.882813 36.523438 C 16.960938 34.324219 15.421875 31.824219 14.320313 29.117188 L 14.097656 28.523438 C 14.0625 28.457031 14.023438 28.394531 13.976563 28.335938 C 13.25 28.863281 12.585938 29.472656 12 30.152344 Z M 12 30.152344 "/>
<path style=" stroke:none;fill-rule:nonzero;fill:rgb(255,255,255);fill-opacity:1;" d="M 7.292969 40.898438 C 7.039063 42.347656 6.910156 43.8125 6.914063 45.28125 C 7.804688 46.617188 8.804688 47.875 9.90625 49.039063 C 10.390625 49.542969 11.191406 49.5625 11.699219 49.078125 C 12.207031 48.59375 12.226563 47.792969 11.746094 47.285156 C 9.945313 45.394531 8.445313 43.242188 7.292969 40.898438 Z M 7.292969 40.898438 "/>
<path style=" stroke:none;fill-rule:nonzero;fill:rgb(255,255,255);fill-opacity:1;" d="M 16.984375 47.566406 C 17.335938 47.859375 17.816406 47.941406 18.246094 47.777344 C 18.671875 47.617188 18.980469 47.238281 19.050781 46.785156 C 19.125 46.335938 18.945313 45.878906 18.589844 45.59375 C 15.09375 42.792969 12.378906 39.140625 10.699219 34.988281 C 10.617188 34.789063 10.15625 33.601563 10.078125 33.402344 C 10.046875 33.347656 10.015625 33.296875 9.980469 33.25 C 9.425781 34.257813 8.945313 35.304688 8.535156 36.378906 C 10.382813 40.75 13.285156 44.59375 16.984375 47.566406 Z M 16.984375 47.566406 "/>
<use xlink:href="#surface14" mask="url(#mask3)"/>
<use xlink:href="#surface17" mask="url(#mask4)"/>
<use xlink:href="#surface20" mask="url(#mask5)"/>
<path style=" stroke:none;fill-rule:nonzero;fill:rgb(255,255,255);fill-opacity:1;" d="M 40.714844 24.273438 C 40.714844 25.589844 39.644531 26.65625 38.328125 26.65625 C 37.011719 26.65625 35.945313 25.589844 35.945313 24.273438 C 35.945313 22.957031 37.011719 21.890625 38.328125 21.890625 C 39.644531 21.890625 40.714844 22.957031 40.714844 24.273438 Z M 40.714844 24.273438 "/>
<path style=" stroke:none;fill-rule:nonzero;fill:rgb(255,255,255);fill-opacity:1;" d="M 31.574219 37.785156 C 31.574219 39.539063 30.152344 40.964844 28.394531 40.964844 C 26.640625 40.964844 25.214844 39.539063 25.214844 37.785156 C 25.214844 36.027344 26.640625 34.605469 28.394531 34.605469 C 30.152344 34.605469 31.574219 36.027344 31.574219 37.785156 Z M 31.574219 37.785156 "/>
<use xlink:href="#surface23" mask="url(#mask6)"/>
</g>
</svg>
