<?xml version="1.0" encoding="UTF-8"?>
<svg xmlns="http://www.w3.org/2000/svg" xmlns:xlink="http://www.w3.org/1999/xlink" width="70pt" height="70pt" viewBox="0 0 70 70" version="1.1">
<defs>
<filter id="alpha" filterUnits="objectBoundingBox" x="0%" y="0%" width="100%" height="100%">
  <feColorMatrix type="matrix" in="SourceGraphic" values="0 0 0 0 1 0 0 0 0 1 0 0 0 0 1 0 0 0 1 0"/>
</filter>
<mask id="mask0">
  <g filter="url(#alpha)">
<rect x="0" y="0" width="70" height="70" style="fill:rgb(0,0,0);fill-opacity:0.8;stroke:none;"/>
  </g>
</mask>
<linearGradient id="linear0" gradientUnits="userSpaceOnUse" x1="158.08447" y1="192.33629" x2="147.53897" y2="201.83781" gradientTransform="matrix(3.598681,-1.474095,1.474095,3.598681,-808.559539,-438.953589)">
<stop offset="0" style="stop-color:rgb(0,95,166);stop-opacity:0.8;"/>
<stop offset="1" style="stop-color:rgb(0,95,166);stop-opacity:1;"/>
</linearGradient>
<clipPath id="clip1">
  <rect x="0" y="0" width="70" height="70"/>
</clipPath>
<g id="surface5" clip-path="url(#clip1)">
<path style=" stroke:none;fill-rule:nonzero;fill:url(#linear0);" d="M 53.660156 11.121094 C 53.144531 11.03125 52.550781 10.894531 51.894531 10.714844 C 51.796875 10.683594 51.664063 10.648438 51.566406 10.621094 C 50.890625 10.429688 49.925781 10.097656 49.90625 10.085938 C 49.710938 10 49.4375 9.914063 49.238281 9.84375 C 49.035156 9.769531 48.765625 9.664063 48.5625 9.582031 C 47.226563 9.050781 45.917969 8.449219 44.640625 7.78125 C 43.078125 7 41.609375 6.042969 40.261719 4.929688 C 38.3125 9.765625 35.480469 14.195313 31.910156 17.996094 C 23.804688 23.847656 14.464844 26.382813 11.558594 30.804688 C 5.578125 39.253906 5.464844 50.527344 11.273438 59.097656 C 17.085938 67.664063 27.601563 71.730469 37.664063 69.300781 C 47.730469 66.867188 55.226563 58.449219 56.484375 48.171875 L 56.503906 48.179688 C 56.675781 46.730469 56.691406 45.265625 56.542969 43.8125 C 55.550781 37.214844 51.40625 31.65625 51.007813 22.214844 C 51.421875 18.386719 52.5 14.65625 54.199219 11.203125 C 54.035156 11.179688 53.851563 11.152344 53.660156 11.121094 Z M 53.660156 11.121094 "/>
</g>
<mask id="mask1">
  <g filter="url(#alpha)">
<rect x="0" y="0" width="70" height="70" style="fill:rgb(0,0,0);fill-opacity:0.6;stroke:none;"/>
  </g>
</mask>
<clipPath id="clip2">
  <rect x="0" y="0" width="70" height="70"/>
</clipPath>
<g id="surface8" clip-path="url(#clip2)">
<path style=" stroke:none;fill-rule:nonzero;fill:rgb(0,95,166);fill-opacity:1;" d="M 54.917969 7.195313 C 56.460938 8.914063 54.8125 9.492188 51.238281 8.484375 C 47.808594 7.570313 44.636719 5.878906 41.960938 3.546875 C 40.417969 1.828125 42.066406 1.253906 45.648438 2.257813 C 49.074219 3.175781 52.246094 4.863281 54.917969 7.195313 Z M 54.917969 7.195313 "/>
</g>
<mask id="mask2">
  <g filter="url(#alpha)">
<rect x="0" y="0" width="70" height="70" style="fill:rgb(0,0,0);fill-opacity:0.8;stroke:none;"/>
  </g>
</mask>
<clipPath id="clip3">
  <rect x="0" y="0" width="70" height="70"/>
</clipPath>
<g id="surface11" clip-path="url(#clip3)">
<path style=" stroke:none;fill-rule:nonzero;fill:rgb(0,95,166);fill-opacity:1;" d="M 57.414063 7.707031 C 57.101563 7.066406 55.96875 5.664063 51.871094 3.484375 C 50.167969 2.589844 48.40625 1.820313 46.597656 1.175781 C 46.203125 1.039063 45.671875 0.867188 45.273438 0.742188 C 45.054688 0.671875 44.832031 0.613281 44.613281 0.546875 C 44.40625 0.484375 44.195313 0.445313 43.988281 0.386719 C 43.8125 0.335938 43.574219 0.289063 43.398438 0.25 C 42.421875 0.00390625 41.40625 -0.0429688 40.410156 0.117188 C 39.75 0.328125 39.238281 0.863281 39.058594 1.53125 L 38.972656 1.804688 C 38.953125 1.875 38.9375 1.945313 38.933594 2.019531 C 38.9375 1.945313 38.953125 1.875 38.972656 1.804688 C 38.679688 2.96875 39.15625 4.1875 40.160156 4.839844 C 41.53125 5.996094 43.035156 6.984375 44.640625 7.78125 C 45.917969 8.449219 47.226563 9.050781 48.5625 9.582031 C 48.765625 9.664063 49.035156 9.769531 49.238281 9.84375 C 49.4375 9.914063 49.710938 10 49.90625 10.085938 C 49.925781 10.097656 50.890625 10.429688 51.566406 10.621094 C 51.664063 10.648438 51.796875 10.683594 51.894531 10.714844 C 52.550781 10.894531 53.144531 11.03125 53.660156 11.121094 C 54.460938 11.324219 55.296875 11.332031 56.101563 11.148438 C 56.765625 10.941406 57.277344 10.40625 57.453125 9.734375 L 57.539063 9.460938 C 57.730469 8.882813 57.6875 8.253906 57.414063 7.707031 Z M 51.238281 8.484375 C 47.808594 7.570313 44.636719 5.878906 41.960938 3.546875 C 40.417969 1.828125 42.066406 1.253906 45.648438 2.257813 C 49.074219 3.175781 52.246094 4.863281 54.917969 7.195313 C 56.460938 8.914063 54.8125 9.492188 51.238281 8.484375 Z M 51.238281 8.484375 "/>
</g>
<mask id="mask3">
  <g filter="url(#alpha)">
<rect x="0" y="0" width="70" height="70" style="fill:rgb(0,0,0);fill-opacity:0.6;stroke:none;"/>
  </g>
</mask>
<linearGradient id="linear1" gradientUnits="userSpaceOnUse" x1="1.79631" y1="12.69456" x2="14.56845" y2="12.69456" gradientTransform="matrix(3.888889,0,0,3.888889,0,0)">
<stop offset="0.00102" style="stop-color:rgb(0,95,166);stop-opacity:1;"/>
<stop offset="1" style="stop-color:rgb(0,95,166);stop-opacity:0.6;"/>
</linearGradient>
<clipPath id="clip4">
  <rect x="0" y="0" width="70" height="70"/>
</clipPath>
<g id="surface14" clip-path="url(#clip4)">
<path style=" stroke:none;fill-rule:nonzero;fill:url(#linear1);" d="M 47.964844 37.871094 C 42.113281 36.632813 37.28125 32.476563 31.5625 30.726563 C 26.28125 28.871094 20.621094 28.375 15.097656 29.28125 C 14.03125 29.574219 12.980469 29.921875 11.945313 30.296875 C 11.8125 30.464844 11.671875 30.632813 11.558594 30.804688 C 5.578125 39.253906 5.464844 50.527344 11.273438 59.097656 C 17.085938 67.664063 27.601563 71.730469 37.664063 69.300781 C 47.730469 66.867188 55.226563 58.449219 56.484375 48.171875 L 56.503906 48.175781 C 56.675781 46.730469 56.691406 45.265625 56.542969 43.8125 C 56.199219 41.796875 55.664063 39.816406 54.941406 37.898438 C 52.636719 38.359375 50.265625 38.351563 47.964844 37.871094 Z M 47.964844 37.871094 "/>
</g>
<mask id="mask4">
  <g filter="url(#alpha)">
<rect x="0" y="0" width="70" height="70" style="fill:rgb(0,0,0);fill-opacity:0.8;stroke:none;"/>
  </g>
</mask>
<linearGradient id="linear2" gradientUnits="userSpaceOnUse" x1="8.18002" y1="11.12855" x2="8.18002" y2="17.99999" gradientTransform="matrix(3.888889,0,0,3.888889,0,0)">
<stop offset="0" style="stop-color:rgb(0,95,166);stop-opacity:0.6;"/>
<stop offset="1" style="stop-color:rgb(0,95,166);stop-opacity:0.301961;"/>
</linearGradient>
<clipPath id="clip5">
  <rect x="0" y="0" width="70" height="70"/>
</clipPath>
<g id="surface17" clip-path="url(#clip5)">
<path style=" stroke:none;fill-rule:nonzero;fill:url(#linear2);" d="M 41.246094 68.140625 C 49.566406 64.734375 55.394531 57.097656 56.484375 48.171875 L 56.503906 48.175781 C 56.507813 48.113281 56.585938 47.46875 56.628906 46.613281 L 56.597656 46.644531 C 49.25 52.351563 39.929688 54.882813 30.703125 53.671875 C 21.742188 53.652344 13.195313 49.90625 7.109375 43.328125 L 7.066406 43.277344 C 6.410156 51.867188 10.253906 60.179688 17.21875 65.246094 C 24.183594 70.3125 33.277344 71.40625 41.246094 68.140625 Z M 41.246094 68.140625 "/>
</g>
<mask id="mask5">
  <g filter="url(#alpha)">
<rect x="0" y="0" width="70" height="70" style="fill:rgb(0,0,0);fill-opacity:0.6;stroke:none;"/>
  </g>
</mask>
<linearGradient id="linear3" gradientUnits="userSpaceOnUse" x1="2.73697" y1="12.44588" x2="14.56845" y2="12.44588" gradientTransform="matrix(3.888889,0,0,3.888889,0,0)">
<stop offset="0" style="stop-color:rgb(0,95,166);stop-opacity:0.8;"/>
<stop offset="1" style="stop-color:rgb(0,95,166);stop-opacity:0.6;"/>
</linearGradient>
<clipPath id="clip6">
  <rect x="0" y="0" width="70" height="70"/>
</clipPath>
<g id="surface20" clip-path="url(#clip6)">
<path style=" stroke:none;fill-rule:nonzero;fill:url(#linear3);" d="M 56.484375 48.171875 L 56.503906 48.175781 C 56.675781 46.730469 56.691406 45.265625 56.542969 43.8125 C 55.722656 38.363281 52.753906 33.613281 51.523438 26.804688 C 49.074219 27.3125 46.828125 28.535156 45.066406 30.3125 C 42.714844 32.90625 40.667969 35.765625 38.972656 38.832031 C 35.523438 44.78125 30.671875 49.792969 24.835938 53.429688 C 20.394531 55.75 15.597656 57.316406 10.644531 58.066406 C 16.140625 67.101563 26.75 71.660156 37.085938 69.429688 C 47.417969 67.199219 55.207031 58.664063 56.484375 48.171875 Z M 56.484375 48.171875 "/>
</g>
<mask id="mask6">
  <g filter="url(#alpha)">
<rect x="0" y="0" width="70" height="70" style="fill:rgb(0,0,0);fill-opacity:0.2;stroke:none;"/>
  </g>
</mask>
<clipPath id="clip7">
  <rect x="0" y="0" width="70" height="70"/>
</clipPath>
<g id="surface23" clip-path="url(#clip7)">
<path style=" stroke:none;fill-rule:nonzero;fill:rgb(255,255,255);fill-opacity:1;" d="M 43.964844 60.414063 C 43.964844 61.730469 42.898438 62.796875 41.582031 62.796875 C 40.265625 62.796875 39.195313 61.730469 39.195313 60.414063 C 39.195313 59.097656 40.265625 58.027344 41.582031 58.027344 C 42.898438 58.027344 43.964844 59.097656 43.964844 60.414063 Z M 43.964844 60.414063 "/>
</g>
<mask id="mask7">
  <g filter="url(#alpha)">
<rect x="0" y="0" width="70" height="70" style="fill:rgb(0,0,0);fill-opacity:0.6;stroke:none;"/>
  </g>
</mask>
<clipPath id="clip8">
  <rect x="0" y="0" width="70" height="70"/>
</clipPath>
<g id="surface26" clip-path="url(#clip8)">
<path style=" stroke:none;fill-rule:nonzero;fill:rgb(255,255,255);fill-opacity:1;" d="M 14.050781 28.316406 C 14.09375 28.375 14.136719 28.4375 14.167969 28.503906 L 14.394531 29.097656 C 15.492188 31.800781 17.035156 34.304688 18.957031 36.503906 C 19.40625 37.035156 19.351563 37.828125 18.828125 38.289063 C 18.304688 38.746094 17.507813 38.699219 17.042969 38.179688 C 14.953125 35.789063 13.277344 33.070313 12.074219 30.128906 C 12.660156 29.453125 13.324219 28.84375 14.050781 28.316406 Z M 7.367188 40.878906 C 7.109375 42.328125 6.984375 43.792969 6.988281 45.261719 C 7.875 46.597656 8.875 47.851563 9.976563 49.019531 C 10.289063 49.351563 10.757813 49.488281 11.199219 49.382813 C 11.640625 49.273438 11.996094 48.941406 12.121094 48.503906 C 12.25 48.066406 12.132813 47.59375 11.820313 47.265625 C 10.019531 45.375 8.519531 43.222656 7.367188 40.878906 Z M 17.058594 47.546875 C 17.410156 47.835938 17.890625 47.914063 18.316406 47.753906 C 18.742188 47.589844 19.046875 47.214844 19.121094 46.765625 C 19.191406 46.3125 19.015625 45.859375 18.664063 45.574219 C 15.167969 42.773438 12.449219 39.121094 10.773438 34.96875 C 10.691406 34.769531 10.226563 33.582031 10.148438 33.378906 C 10.121094 33.328125 10.089844 33.277344 10.050781 33.230469 C 9.5 34.238281 9.019531 35.285156 8.609375 36.359375 C 10.453125 40.730469 13.355469 44.574219 17.058594 47.546875 Z M 17.058594 47.546875 "/>
</g>
</defs>
<g id="surface1">
<use xlink:href="#surface5" mask="url(#mask0)"/>
<use xlink:href="#surface8" mask="url(#mask1)"/>
<use xlink:href="#surface11" mask="url(#mask2)"/>
<use xlink:href="#surface14" mask="url(#mask3)"/>
<use xlink:href="#surface17" mask="url(#mask4)"/>
<use xlink:href="#surface20" mask="url(#mask5)"/>
<path style=" stroke:none;fill-rule:nonzero;fill:rgb(0,95,166);fill-opacity:1;" d="M 40.785156 24.253906 C 40.785156 25.570313 39.71875 26.636719 38.402344 26.636719 C 37.085938 26.636719 36.019531 25.570313 36.019531 24.253906 C 36.019531 22.9375 37.085938 21.871094 38.402344 21.871094 C 39.71875 21.871094 40.785156 22.9375 40.785156 24.253906 Z M 40.785156 24.253906 "/>
<path style=" stroke:none;fill-rule:nonzero;fill:rgb(0,95,166);fill-opacity:1;" d="M 31.648438 37.765625 C 31.648438 39.519531 30.222656 40.941406 28.46875 40.941406 C 26.710938 40.941406 25.289063 39.519531 25.289063 37.765625 C 25.289063 36.007813 26.710938 34.585938 28.46875 34.585938 C 30.222656 34.585938 31.648438 36.007813 31.648438 37.765625 Z M 31.648438 37.765625 "/>
<use xlink:href="#surface23" mask="url(#mask6)"/>
<use xlink:href="#surface26" mask="url(#mask7)"/>
</g>
</svg>
