<?xml version="1.0" encoding="UTF-8"?>
<svg xmlns="http://www.w3.org/2000/svg" xmlns:xlink="http://www.w3.org/1999/xlink" width="70pt" height="70pt" viewBox="0 0 70 70" version="1.1">
<defs>
<linearGradient id="linear0" gradientUnits="userSpaceOnUse" x1="9" y1="-0.15" x2="9" y2="15.59" gradientTransform="matrix(3.888889,0,0,3.888889,0,0)">
<stop offset="0.09" style="stop-color:rgb(41,164,255);stop-opacity:1;"/>
<stop offset="1" style="stop-color:rgb(0,108,188);stop-opacity:1;"/>
</linearGradient>
</defs>
<g id="surface1">
<path style=" stroke:none;fill-rule:nonzero;fill:url(#linear0);" d="M 3.890625 6.417969 L 66.109375 6.417969 C 67.140625 6.394531 68.011719 7.175781 68.09375 8.207031 L 68.09375 51.371094 C 68.03125 52.410156 67.148438 53.207031 66.109375 53.160156 L 3.890625 53.160156 C 2.84375 53.207031 1.949219 52.414063 1.867188 51.371094 L 1.867188 8.285156 C 1.886719 7.765625 2.113281 7.28125 2.492188 6.929688 C 2.871094 6.582031 3.375 6.394531 3.890625 6.417969 Z M 3.890625 6.417969 "/>
<path style=" stroke:none;fill-rule:nonzero;fill:rgb(119,197,255);fill-opacity:1;" d="M 46.160156 32.433594 L 56.503906 38.421875 L 66.890625 44.371094 C 67.070313 44.488281 67.175781 44.683594 67.175781 44.898438 C 67.175781 45.109375 67.070313 45.308594 66.890625 45.421875 L 59.964844 49.3125 L 64.90625 57.789063 C 65.820313 59.414063 65.265625 61.46875 63.660156 62.417969 L 62.648438 63 C 61.039063 63.945313 58.96875 63.40625 58.023438 61.792969 L 53.082031 53.238281 L 46.199219 57.128906 C 46.011719 57.246094 45.773438 57.25 45.582031 57.132813 C 45.394531 57.019531 45.285156 56.804688 45.304688 56.582031 L 45.304688 32.976563 C 45.316406 32.777344 45.421875 32.59375 45.59375 32.484375 C 45.761719 32.375 45.972656 32.359375 46.160156 32.433594 Z M 46.160156 32.433594 "/>
<path style=" stroke:none;fill-rule:nonzero;fill:rgb(255,255,255);fill-opacity:1;" d="M 29.554688 12.910156 L 40.753906 12.910156 C 41.054688 12.910156 41.300781 13.15625 41.300781 13.457031 L 41.300781 25.121094 C 41.300781 25.402344 41.074219 25.628906 40.792969 25.628906 L 29.789063 25.628906 C 29.488281 25.628906 29.246094 25.382813 29.246094 25.082031 L 29.246094 13.417969 C 29.234375 13.1875 29.375 12.980469 29.59375 12.910156 Z M 29.554688 12.910156 "/>
<path style=" stroke:none;fill-rule:nonzero;fill:rgb(95,187,255);fill-opacity:1;" d="M 29.554688 31.695313 L 40.753906 31.695313 C 41.046875 31.714844 41.28125 31.945313 41.300781 32.238281 L 41.300781 43.90625 C 41.300781 44.183594 41.074219 44.410156 40.792969 44.410156 L 29.789063 44.410156 C 29.488281 44.410156 29.246094 44.167969 29.246094 43.867188 L 29.246094 32.199219 C 29.234375 31.972656 29.375 31.765625 29.59375 31.695313 Z M 50.167969 12.910156 L 61.367188 12.910156 C 61.667969 12.910156 61.910156 13.15625 61.910156 13.457031 L 61.910156 25.121094 C 61.910156 25.402344 61.683594 25.628906 61.40625 25.628906 L 50.359375 25.628906 C 50.058594 25.628906 49.816406 25.382813 49.816406 25.082031 L 49.816406 13.417969 C 49.804688 13.1875 49.949219 12.980469 50.167969 12.910156 Z M 50.167969 12.910156 "/>
</g>
</svg>
